<svg width="512" height="512" viewBox="0 0 512 512" fill="none" xmlns="http://www.w3.org/2000/svg">
<rect x="94" y="94" width="324" height="324" rx="26" stroke="#5CDB95" stroke-width="20"/>
<path d="M36 8H164C179.464 8 192 20.536 192 36V164C192 179.464 179.464 192 164 192H36C20.536 192 8 179.464 8 164V36C8 20.536 20.536 8 36 8Z" stroke="#5CDB95" stroke-width="16"/>
<path d="M348 8H476C491.464 8 504 20.536 504 36V164C504 179.464 491.464 192 476 192H348C332.536 192 320 179.464 320 164V36C320 20.536 332.536 8 348 8Z" stroke="#5CDB95" stroke-width="16"/>
<path d="M36 320H164C179.464 320 192 332.536 192 348V476C192 491.464 179.464 504 164 504H36C20.536 504 8 491.464 8 476V348C8 332.536 20.536 320 36 320Z" stroke="#5CDB95" stroke-width="16"/>
<path d="M348 320H476C491.464 320 504 332.536 504 348V476C504 491.464 491.464 504 476 504H348C332.536 504 320 491.464 320 476V348C320 332.536 332.536 320 348 320Z" stroke="#5CDB95" stroke-width="16"/>
</svg>
